<svg width="36" height="36" viewBox="0 0 36 36" fill="none" xmlns="http://www.w3.org/2000/svg">
<path d="M34.8256 12.1475L31.5845 8.90644C31.323 8.64847 30.9744 8.49784 30.6073 8.48424C30.2402 8.47065 29.8814 8.59507 29.6015 8.83299C29.1695 9.20075 28.615 9.39278 28.048 9.37101C27.4811 9.34925 26.943 9.11528 26.5404 8.71548C26.1408 8.31292 25.907 7.77497 25.8852 7.20817C25.8634 6.64138 26.0553 6.08708 26.4229 5.65506C26.6608 5.3752 26.7852 5.01636 26.7716 4.64929C26.758 4.28222 26.6074 3.93356 26.3494 3.67207L23.1054 0.4273C22.8312 0.153676 22.4597 0 22.0724 0C21.6851 0 21.3136 0.153676 21.0394 0.4273L15.8726 5.59337C15.5536 5.91351 15.3131 6.30314 15.1698 6.73175C15.1418 6.81416 15.0953 6.88903 15.0338 6.95055C14.9723 7.01207 14.8974 7.05859 14.815 7.08649C14.3862 7.22978 13.9965 7.47063 13.6766 7.79008L0.4273 21.0394C0.153676 21.3136 0 21.6851 0 22.0724C0 22.4598 0.153676 22.8313 0.4273 23.1054L3.67206 26.3465C3.93356 26.6045 4.28221 26.7551 4.64928 26.7687C5.01636 26.7823 5.3752 26.6579 5.65506 26.4199C6.08609 26.0492 6.6413 25.8551 7.20944 25.8764C7.77758 25.8977 8.31667 26.133 8.71869 26.535C9.1207 26.937 9.35595 27.4761 9.37728 28.0442C9.39861 28.6124 9.20446 29.1676 8.83372 29.5986C8.5958 29.8785 8.47138 30.2373 8.48497 30.6044C8.49857 30.9715 8.6492 31.3201 8.90717 31.5816L12.1483 34.8227C12.4224 35.0963 12.7939 35.25 13.1813 35.25C13.5686 35.25 13.9401 35.0963 14.2142 34.8227L27.4636 21.5734C27.7828 21.2536 28.0237 20.8642 28.1672 20.4357C28.195 20.353 28.2415 20.2779 28.3032 20.2162C28.3648 20.1546 28.44 20.108 28.5226 20.0802C28.951 19.9369 29.3404 19.6963 29.6603 19.3774L34.8264 14.2106C35.099 13.9365 35.252 13.5655 35.2518 13.1789C35.2517 12.7923 35.0984 12.4215 34.8256 12.1475ZM18.0532 9.96991C17.944 10.0791 17.8145 10.1656 17.6719 10.2247C17.5293 10.2838 17.3765 10.3142 17.2222 10.3142C17.0678 10.3142 16.915 10.2838 16.7724 10.2247C16.6298 10.1656 16.5003 10.0791 16.3911 9.96991L15.5458 9.12457C15.3308 8.90308 15.2116 8.60589 15.2139 8.29721C15.2162 7.98854 15.3399 7.69317 15.5582 7.47495C15.7765 7.25672 16.0719 7.13317 16.3806 7.13098C16.6893 7.12879 16.9864 7.24815 17.2078 7.46326L18.0532 8.30787C18.1623 8.41699 18.2489 8.54654 18.308 8.68913C18.367 8.83172 18.3974 8.98455 18.3974 9.13889C18.3974 9.29323 18.367 9.44606 18.308 9.58864C18.2489 9.73123 18.1623 9.86079 18.0532 9.96991ZM21.2847 13.2015C21.0644 13.4217 20.7656 13.5454 20.4541 13.5454C20.1425 13.5454 19.8438 13.4217 19.6234 13.2015L18.8155 12.3936C18.7064 12.2844 18.6198 12.1549 18.5608 12.0123C18.5017 11.8697 18.4713 11.7169 18.4713 11.5625C18.4713 11.4082 18.5017 11.2554 18.5608 11.1128C18.6198 10.9702 18.7064 10.8407 18.8155 10.7315C19.0359 10.5111 19.3349 10.3873 19.6465 10.3873C19.8009 10.3873 19.9537 10.4177 20.0963 10.4768C20.2389 10.5358 20.3684 10.6224 20.4776 10.7315L21.2855 11.5394C21.395 11.6485 21.4819 11.7782 21.5412 11.9209C21.6006 12.0637 21.6311 12.2168 21.6312 12.3714C21.6313 12.526 21.6008 12.6791 21.5416 12.8219C21.4824 12.9647 21.3956 13.0944 21.2862 13.2037L21.2847 13.2015ZM24.5163 16.433C24.4071 16.5421 24.2776 16.6287 24.135 16.6878C23.9924 16.7469 23.8396 16.7773 23.6852 16.7773C23.5309 16.7773 23.3781 16.7469 23.2355 16.6878C23.0929 16.6287 22.9633 16.5421 22.8542 16.433L22.0463 15.6251C21.8313 15.4036 21.7121 15.1064 21.7144 14.7978C21.7167 14.4891 21.8404 14.1937 22.0588 13.9755C22.2771 13.7573 22.5725 13.6337 22.8812 13.6315C23.1898 13.6293 23.487 13.7487 23.7084 13.9638L24.5163 14.7717C24.6261 14.8806 24.7133 15.0102 24.773 15.1529C24.8326 15.2956 24.8635 15.4487 24.8638 15.6034C24.8642 15.7581 24.834 15.9113 24.775 16.0543C24.7159 16.1973 24.6293 16.3273 24.5199 16.4367L24.5163 16.433ZM27.7794 19.7042C27.6703 19.8134 27.5407 19.8999 27.3981 19.959C27.2555 20.0181 27.1027 20.0485 26.9484 20.0485C26.794 20.0485 26.6412 20.0181 26.4986 19.959C26.356 19.8999 26.2265 19.8134 26.1173 19.7042L25.2771 18.8596C25.1657 18.7508 25.077 18.6209 25.0162 18.4776C24.9554 18.3342 24.9237 18.1801 24.923 18.0244C24.9222 17.8686 24.9524 17.7143 25.0119 17.5704C25.0713 17.4264 25.1588 17.2957 25.2691 17.1858C25.3795 17.076 25.5107 16.9892 25.6549 16.9304C25.7992 16.8717 25.9536 16.8422 26.1094 16.8437C26.2651 16.8452 26.419 16.8777 26.5621 16.9392C26.7052 17.0007 26.8346 17.09 26.9429 17.202L27.7838 18.0458C27.8929 18.155 27.9794 18.2846 28.0384 18.4272C28.0974 18.5698 28.1278 18.7227 28.1277 18.877C28.1276 19.0313 28.0972 19.1842 28.038 19.3267C27.9789 19.4693 27.8923 19.5988 27.7831 19.7079L27.7794 19.7042Z" fill="#2B293D"/>
</svg>
