<svg width="44" height="44" viewBox="0 0 44 44" fill="none" xmlns="http://www.w3.org/2000/svg">
<path d="M34.8333 34.834V14.6673H9.16667V34.834H34.8333ZM29.3333 1.83398H33V5.50065H34.8333C35.8058 5.50065 36.7384 5.88696 37.4261 6.57459C38.1137 7.26223 38.5 8.19486 38.5 9.16732V34.834C38.5 36.869 36.8683 38.5006 34.8333 38.5006H9.16667C8.19421 38.5006 7.26157 38.1143 6.57394 37.4267C5.88631 36.7391 5.5 35.8064 5.5 34.834V9.16732C5.5 7.13232 7.13167 5.50065 9.16667 5.50065H11V1.83398H14.6667V5.50065H29.3333V1.83398ZM20.1667 17.4173H23.8333V22.9173H29.3333V26.584H23.8333V32.084H20.1667V26.584H14.6667V22.9173H20.1667V17.4173Z" fill="#2B293D"/>
</svg>
